<svg xmlns="http://www.w3.org/2000/svg" fill="none" height="38" viewBox="0 0 101 38" width="101"><g fill="#fff"><path d="m90.3907 31.741h-1.7897v-1.788h5.4973v1.788h-1.7896v4.8381h-1.918z"/><path d="m94.2251 33.2661c0 1.9817 1.38 3.313 3.9629 3.313h2.812v-1.7896h-2.812c-1.1947 0-1.9815-.4432-1.9815-1.5234s.7868-1.5234 1.9815-1.5234h2.812v-1.7897h-2.812c-2.5845 0-3.9629 1.3313-3.9629 3.3131z"/><path d="m82.6585 29.953 1.0224 3.9534 1.0224-3.9534h3.3874v6.6244h-1.9164v-5.3925l-1.3946 5.3925h-2.1976l-1.3947-5.3891v5.3891h-1.9164v-6.6244z"/><path d="m74.7978 29.5553c-.5348 0-1.1654.5309-1.6888 1.4257-.5429.9251-.868 2.0728-.868 3.067 0 1.4577.79 2.9272 2.5568 2.9272 1.7653 0 2.5568-1.4695 2.5568-2.9272 0-.9959-.3234-2.1419-.8663-3.067-.525-.8948-1.1573-1.4257-1.6905-1.4257z"/><path d="m35.9317 31.6011c-1.3897 0-2.0822.8595-2.0822 2.5211 0 1.6902.6925 2.5345 2.0806 2.5362 1.1378 0 1.8091-.4618 1.9668-1.5841h-.9037c-.1154.6538-.4519.8662-1.0615.8662-.8224 0-1.1784-.541-1.1784-1.542v-.5476c0-1.0145.3836-1.5336 1.1784-1.5336.6437 0 .9656.2697 1.055.8814h.9037c-.1642-1.1291-.8013-1.5976-1.9587-1.5976z"/><path d="m40.4131 33.7312c-.6307 0-.8761.2342-.8761.8021v2.0458h-.8355v-3.5793h.8013v.632c.1577-.4045.473-.632.959-.632h.3771v.7314z"/><path clip-rule="evenodd" d="m44.5369 35.4214h-.8355c-.0553.4618-.3706.5966-.7591.5949-.5282 0-.816-.3471-.816-.9723v-.2697h2.3976v-.1853c0-1.1426-.5559-1.6684-1.5832-1.6684-1.1297 0-1.6645.6674-1.6645 1.8756 0 1.1931.5202 1.8605 1.6645 1.8605.9037 0 1.4873-.3758 1.5962-1.2353zm-.8843-1.1998h-1.5132c.0552-.4483.3007-.6606.7932-.6606.4665 0 .6794.2208.72.6606z" fill-rule="evenodd"/><path clip-rule="evenodd" d="m46.5313 34.4693.8972-.0859v-.1635c0-.4904-.2259-.6606-.6306-.6606-.3966 0-.6307.1635-.6713.5477h-.8502c.0472-.7667.5624-1.1864 1.5133-1.1864.946 0 1.4792.3977 1.4792 1.3145v2.3441h-.8014v-.455c-.247.3555-.6225.5325-1.1296.5325-.7949 0-1.185-.4483-1.185-1.0516.0016-.7313.4389-1.0431 1.3784-1.1358zm.8972.76v-.3117l-.8224.0859c-.4048.0421-.6031.1567-.6031.4752v.1483c0 .2764.213.4196.5884.4196.4942 0 .8371-.278.8371-.8173z" fill-rule="evenodd"/><path d="m49.2783 32.9998h-.4389v.6876h.4389v1.911c0 .6892.2259.9808.9037.9808h.7802v-.6893h-.486c-.2666 0-.3625-.1061-.3625-.3977v-1.8031h.8501v-.6893h-.8501v-1.1155h-.8354z"/><g clip-rule="evenodd" fill-rule="evenodd"><path d="m53.8751 35.4214h.8354c-.1089.8595-.6924 1.2353-1.5961 1.2353-1.1444 0-1.6645-.6674-1.6645-1.8605 0-1.2082.5348-1.8756 1.6645-1.8756 1.0272 0 1.5831.5258 1.5831 1.6684v.1853h-2.3975v.2697c0 .6252.2877.9723.816.9723.3901.0017.7038-.1331.7591-.5949zm-1.5621-1.1998h1.5133c-.0406-.4398-.2536-.6606-.7184-.6606-.4925 0-.7396.2123-.7949.6606z"/><path d="m57.9224 36.0981c-.226.3674-.5896.5586-1.102.5586-1.0078 0-1.5003-.696-1.5003-1.8605 0-1.1796.4941-1.8756 1.5003-1.8756.486 0 .8354.1854 1.0679.5191v-2.0458h.8355v5.1852h-.8014zm-.0325-1.585v.5393c0 .5881-.2731.9588-.8501.9588-.5754 0-.8501-.3404-.8501-.9588v-.5393c0-.6117.2747-.9454.8501-.9454s.8501.3337.8501.9454z"/><path d="m61.4253 31.3939h.8354v2.039c.226-.3336.5689-.5106 1.0549-.5106 1.0208 0 1.5215.696 1.5215 1.8756 0 1.1645-.5072 1.8605-1.5215 1.8605-.5071 0-.8696-.1922-1.089-.5612v.4836h-.8013zm2.5357 3.6585v-.5393c0-.6117-.2747-.9454-.842-.9454-.5689 0-.842.3202-.8566.9016v.5831c0 .5898.2812.9588.8501.9588.5738 0 .8485-.3707.8485-.9588z"/></g><path d="m66.5242 36.9415c-.104.305-.2259.369-.5965.369h-.2991v.6892h.486c.6567 0 .8908-.1786 1.1573-.9521l1.4174-4.0478h-.7948l-.8696 2.5076-.8973-2.5076h-.8842l1.3491 3.7293z"/><path d="m33.075.924387v22.895813c0 .5097-.4033.9244-.899.9244h-5.8059c-.4957 0-.899-.4147-.899-.9244v-22.895813c0-.509709.4033-.924387.899-.924387h5.8059c.4957 0 .899.414678.899.924387zm-9.0785 22.783513-6.7637-11.8982 6.4108-10.72765c.3088-.457873-.0084-1.08205-.5503-1.08205l-7.0473.0129587c-.2227 0-.4327.1144683-.5567.3045293l-4.9803 8.701762h-2.90716v-8.094863c0-.509709-.40331-.924387-.89903-.924387h-5.803781c-.497827 0-.899029.414678-.899029.924387v22.895813c0 .5097.403303.9244.899029.9244h5.805881c.49572 0 .89903-.4147.89903-.9244v-8.0603h3.53726l4.951 8.6586c.1218.2073.3403.3369.5755.3369h6.7575c.5251 0 .8465-.5896.5713-1.0475zm76.1045 1.0367c.496 0 .899-.4147.899-.9244v-22.895813c0-.509709-.403-.924387-.899-.924387h-5.5959c-.4957 0-.899.414678-.899.924387l.0357 11.712513-10.1582-12.6239413h-6.4528c-.4957 0-.899.4146783-.899.9243863v22.897955c0 .5098.4012.9223.8969.9223h5.5832c.4957 0 .897-.4125.897-.9223v-11.7276l10.0552 12.6391zm-26.2966-23.72302v22.70362c0 .5637-.4453 1.0216-.9936 1.0216h-36.4169c-.5483 0-.9936-.4579-.9936-1.0216v-22.70362c0-.563706.4453-1.02158.9936-1.02158h36.419c.5462 0 .9915.457874.9915 1.02158zm-7.5577 5.55711c0-.20517-.1828-.35852-.3802-.31748-3.9343.80775-17.8651.93086-22.5367-.00648-.1932-.03888-.3718.11447-.3718.31964v11.23303c0 .1987.1702.3499.3634.3218 3.8734-.5896 18.5982-.4924 22.5724.013.189.0237.3529-.1275.3529-.3218z"/></g></svg>