<svg width="24" height="24" viewBox="0 0 24 24" fill="none" xmlns="http://www.w3.org/2000/svg">
<path d="M20.2333 12C20.2333 16.5471 16.5471 20.2333 12 20.2333C7.45286 20.2333 3.76667 16.5471 3.76667 12C3.76667 7.45286 7.45286 3.76667 12 3.76667C16.5471 3.76667 20.2333 7.45286 20.2333 12ZM12 22.1C17.5781 22.1 22.1 17.5781 22.1 12C22.1 6.42192 17.5781 1.9 12 1.9C6.42192 1.9 1.9 6.42192 1.9 12C1.9 17.5781 6.42192 22.1 12 22.1ZM12 9.18333C12.9757 9.18333 13.7667 8.39237 13.7667 7.41667C13.7667 6.44096 12.9757 5.65 12 5.65C11.0243 5.65 10.2333 6.44096 10.2333 7.41667C10.2333 8.39237 11.0243 9.18333 12 9.18333ZM13.4339 13.3501C13.3783 13.1835 13.35 13.009 13.35 12.8333V11.7939C14.5311 11.6214 15.6408 11.2259 16.634 10.6514C17.0802 10.3933 17.2327 9.82231 16.9746 9.37612C16.7165 8.92993 16.1455 8.77746 15.6993 9.03556C14.6118 9.66464 13.3494 10.025 12 10.025C10.6506 10.025 9.38817 9.66464 8.30068 9.03556C7.85449 8.77745 7.28354 8.92993 7.02543 9.37612C6.76733 9.82231 6.9198 10.3933 7.36599 10.6514C8.35915 11.2259 9.46889 11.6214 10.65 11.7939V12.4386C10.65 12.8757 10.5795 13.3099 10.4413 13.7246L9.4479 16.7049C9.28489 17.1939 9.54917 17.7224 10.0382 17.8854C10.5272 18.0484 11.0558 17.7842 11.2188 17.2951L12 14.9515L12.7812 17.2951C12.9442 17.7842 13.4728 18.0484 13.9618 17.8854C14.4508 17.7224 14.7151 17.1939 14.5521 16.7049L13.4339 13.3501Z" fill="currentColor" stroke="currentColor" stroke-width="0.2"/>
</svg>
