<svg width="24" height="24" viewBox="0 0 24 24" fill="none" xmlns="http://www.w3.org/2000/svg">
<path d="M14 19V5C14 3.89543 14.8954 3 16 3H17C18.1046 3 19 3.89543 19 5V19C19 20.1046 18.1046 21 17 21H16C14.8954 21 14 20.1046 14 19Z" stroke="currentColor" stroke-width="2" stroke-linecap="round" stroke-linejoin="round"/>
<path d="M10 19V5C10 3.89543 9.10457 3 8 3H7C5.89543 3 5 3.89543 5 5V19C5 20.1046 5.89543 21 7 21H8C9.10457 21 10 20.1046 10 19Z" stroke="currentColor" stroke-width="2" stroke-linecap="round" stroke-linejoin="round"/>
</svg>
